<?xml version="1.0" standalone="no"?><!DOCTYPE svg PUBLIC "-//W3C//DTD SVG 1.1//EN" "http://www.w3.org/Graphics/SVG/1.1/DTD/svg11.dtd"><svg t="1563526013318" class="icon" viewBox="0 0 1024 1024" version="1.1" xmlns="http://www.w3.org/2000/svg" p-id="6353" xmlns:xlink="http://www.w3.org/1999/xlink" width="200" height="200"><defs><style type="text/css"></style></defs><path d="M161.2 126m-63.2 0a63.2 63.2 0 1 0 126.4 0 63.2 63.2 0 1 0-126.4 0Z" fill="#71CDE1" p-id="6354"></path><path d="M187.6 753.2c-36.4 0-70.4-14-96-40l-52-51.6c-53.2-53.2-53.2-139.2 0-192.4l167.6-167.6c12.8-12.8 27.6-22.8 44-29.6 16.4-6.8 34-10.4 52-10.4s35.6 3.6 52 10.4c16.4 6.8 31.2 16.8 44 29.6l51.6 51.6c12.8 12.8 22.8 27.6 29.6 44l1.6 3.6-17.6 17.6c-10.4 10.4-24.4 16.4-39.2 16.4-14 0-27.2-5.2-37.2-14.4l-0.4-0.4c-0.4-0.4-0.8-1.2-1.6-1.6L334.4 367.2c-0.4-0.4-1.2-0.8-1.6-1.6-8-7.2-18.8-11.6-29.6-11.6-11.6 0-22.8 4.4-31.2 12.8l-167.6 167.2c-8.4 8.4-12.8 19.2-12.8 31.2s4.4 22.8 12.8 31.2L156 648c8.4 8.4 19.2 12.8 31.2 12.8 11.6 0 22.8-4.4 31.2-12.8l155.6-155.6 3.6 1.6c15.2 6.4 31.2 9.6 47.6 9.6 16.4 0 32.4-3.2 47.6-9.6l13.2-5.6-5.2 13.2c-6.8 16.4-16.8 31.2-29.6 44l-167.6 167.6c-25.6 26-59.6 40-96 40zM303.2 274c-16.4 0-32.4 3.2-47.6 9.6-15.2 6.4-28.8 15.2-40.4 26.8L48 477.6c-48.4 48.4-48.4 127.2 0 175.6l51.6 51.6c23.6 23.6 54.8 36.4 88 36.4s64.4-12.8 88-36.4l167.6-167.6c8.4-8.4 15.2-17.6 20.8-27.6-12.4 3.6-25.6 5.6-38.4 5.6-16.8 0-32.8-2.8-48.4-8.8l-150 150c-10.4 10.4-24.4 16.4-39.2 16.4-14.8 0-28.8-5.6-39.2-16.4l-51.6-51.6c-10.4-10.4-16.4-24.4-16.4-39.2s5.6-28.8 16.4-39.2L264 358.8c10.4-10.4 24.4-16.4 39.2-16.4 14 0 27.2 5.2 37.2 14.4 0.8 0.4 1.2 1.2 2 2l51.6 51.6c0.8 0.8 1.2 1.2 1.6 2 8 7.2 18.4 11.2 29.2 11.2 11.6 0 22.8-4.4 31.2-12.8l12-12c-6-13.6-14.8-26-25.6-36.8L391.2 310.4c-11.6-11.6-25.2-20.8-40.4-26.8-15.2-6.4-31.2-9.6-47.6-9.6z" fill="#4A555F" p-id="6355"></path><path d="M187.6 728c-29.6 0-57.2-11.6-78.4-32.4L57.6 644c-43.2-43.2-43.2-113.2 0-156.4L225.2 320c10.4-10.4 22.4-18.4 35.6-24 13.6-5.6 27.6-8.4 42.4-8.4 14.8 0 28.8 2.8 42.4 8.4 13.6 5.6 25.6 13.6 36 24l51.6 51.6c7.2 7.2 13.6 15.6 18.4 24.4l-5.2 5.2c-5.6 5.6-13.2 8.8-21.6 8.8-7.2 0-14-2.4-19.6-7.2-0.4-0.8-1.2-1.2-1.6-2L352.4 349.2c-0.8-0.8-2-1.6-2.8-2.4-12.8-11.6-29.2-17.6-46.4-17.6-18.4 0-36 7.2-48.8 20.4l-167.6 167.2c-13.2 13.2-20.4 30.4-20.4 48.8s7.2 36 20.4 48.8l51.6 51.6c13.2 13.2 30.4 20.4 48.8 20.4s36-7.2 48.8-20.4l144-144c14.4 4.4 29.6 6.8 44.8 6.8h7.2l-166.4 166.4c-20.8 21.2-48.4 32.8-78 32.8z" fill="#E0E0E0" p-id="6356"></path><path d="M425.2 515.6V504c2.4 0 4.8 0 7.2-0.4 1.6 0 3.2-0.4 4.8-0.4 6-0.4 12-1.6 18-3.2 3.6-0.8 7.6-2 11.6-3.6l4 10.8c-4 1.6-8 2.8-12.8 4-6.4 1.6-13.2 2.8-19.6 3.6l-0.4-4 0.4 4c-1.6 0-3.2 0.4-4.8 0.4-2.8 0.4-5.6 0.4-8.4 0.4z" fill="#4A555F" p-id="6357"></path><path d="M469.2 502.4c-4 1.6-8 2.8-12 3.6 3.6-1.2 8-2.4 12-3.6z m-12.4 3.6c-6.4 1.6-12.4 2.8-18.8 3.2 6.4-0.8 12.8-1.6 18.8-3.2z m-18.8 3.2c-4.4 0.4-8.4 0.8-12.8 0.8 4.4 0 8.4-0.4 12.8-0.8z" fill="#E0E0E0" p-id="6358"></path><path d="M424.8 515.6c-18 0-35.2-3.6-51.6-10-16.4-6.8-31.2-16.8-44-29.6l-51.6-52c-12.8-12.8-22.8-27.6-29.6-44l-1.6-3.6 17.6-17.6c10.4-10.4 24.4-16.4 39.2-16.4 14 0 27.2 5.2 37.2 14.4l0.4 0.4 1.6 1.6 51.6 51.6c8 8 19.2 12.4 31.2 12.4s22.8-4.4 30.8-12.4l167.6-167.6c8.4-8.4 12.8-19.2 12.8-31.2 0-11.6-4.4-22.8-12.8-31.2L572 129.6c-8.4-8.4-19.2-12.8-31.2-12.8s-22.8 4.4-31.2 12.8L354.4 284.8l-3.6-1.6c-15.2-6.4-31.2-9.6-47.6-9.6-16.4 0-32.4 3.2-47.6 9.6l-13.2 5.6L248 276c6.8-16.4 16.8-31.2 29.6-44l167.6-167.6c25.6-25.6 60-40 96-40 36.4 0 70.4 14 96 40L688.8 116c52.8 53.2 52.8 139.2 0 192.4L521.6 476c-25.2 24.8-60.8 39.6-96.8 39.6zM260.4 379.2c6 13.6 14.8 26 25.6 36.8l51.6 51.6c11.6 11.6 25.2 20.8 40.4 26.8 14.8 6 30.8 9.2 46.8 9.2 33.2 0 65.6-13.2 88.4-36L680.8 300c48.4-48.4 48.4-127.2 0-176l-51.6-51.6c-23.6-23.6-54.8-36.4-88-36.4s-64.4 12.8-88 36.4L285.6 240c-8.4 8.4-15.2 17.6-20.8 27.6 12.4-3.6 25.2-5.6 38.4-5.6 16.8 0 32.8 2.8 48.4 8.8l150-150c10.4-10.4 24.4-16.4 39.2-16.4 14.8 0 28.8 5.6 39.2 16.4l52 52c10.4 10.4 16.4 24.4 16.4 39.2 0 14.8-5.6 28.8-16.4 39.2l-167.6 167.6c-10.4 10.4-24.4 16-39.2 16-14.8 0-29.2-6-39.2-16L334.4 367.2c-0.8-0.8-1.2-1.2-1.6-2-8-7.2-18.4-11.2-29.2-11.2-11.6 0-22.8 4.4-31.2 12.8l-12 12.4z" fill="#4A555F" p-id="6359"></path><path d="M424.8 490c-14.4 0-28.8-2.8-41.6-8.4-13.2-5.6-25.6-13.6-36-24l-51.6-51.6c-7.2-7.2-13.6-15.6-18.4-24.4l5.2-5.2c5.6-5.6 13.2-8.8 21.6-8.8 7.2 0 14 2.4 19.6 7.2l1.6 1.6L376.8 428c12.8 12.8 30.4 20 48.8 20 18.8 0 36-7.2 48.8-20l167.2-167.2c13.2-13.2 20.4-30.4 20.4-48.8s-7.2-36-20.4-48.8l-51.6-51.6c-13.2-13.2-30.4-20.4-48.8-20.4s-36 7.2-48.8 20.4l-144 144c-14.4-4.4-29.6-6.8-44.8-6.8h-7.2l166.4-166.4c20.8-20.8 48.8-32.4 78.4-32.4 29.6 0 57.2 11.6 78.4 32.4l51.6 51.6c43.2 43.2 43.2 113.2 0 156.4l-167.6 167.6c-20.4 20.4-49.2 32-78.8 32z" fill="#E0E0E0" p-id="6360"></path><path d="M813.2 731.2l-28.8-73.6-72.8 31.6-3.2-4-28.8-28.8 31.6-72.4-73.2-28.8v-39.6l73.2-28.8-31.6-72.4 4.4-4.4 23.6-23.6 72.4 31.6 28.8-73.6h39.6l28.8 73.6 72.4-31.6 32.4 32.8-31.6 72.4 73.6 28.8v39.6l-73.6 28.8 31.6 72.4-4.8 4.4-23.2 23.6-72.4-31.6-28.8 73.6h-39.6z m-22.4-89.2l30.4 77.6h23.6l30.4-77.6 76.4 33.2 16.8-16.8-33.2-76 77.6-30.4v-23.6l-77.6-30.4 33.2-76-21.2-21.2-76.4 33.2-30.8-77.6h-23.6l-30.4 77.2-76.4-33.2-16.8 16.8 33.2 76-77.2 30.4v23.6l77.2 30.4-33.2 76.4 21.6 21.2 76.4-33.2z m39.6-36.4c-23.6 0-45.2-12.4-57.2-32.8-6-10-9.2-21.6-9.2-33.6 0-36.8 30-66.4 66.4-66.4 11.6 0 22.8 3.2 32.8 8.8 20.8 11.6 33.6 34 33.6 57.6 0 36.4-29.6 66.4-66.4 66.4z m0-121.2c-30.4 0-54.8 24.8-54.8 54.8 0 10 2.8 19.6 7.6 27.6 10 16.8 27.6 26.8 47.2 26.8 30.4 0 54.8-24.4 54.8-54.8 0-19.6-10.8-38-27.6-47.6-8.4-4.4-17.6-6.8-27.2-6.8z" fill="#4A555F" p-id="6361"></path><path d="M828.4 708.8l-32-80.8-79.6 34.8-11.2-11.2L740 572l-80.8-32v-9.2l80.8-31.6-34.8-79.6 6.4-6.4 79.6 34.8 31.6-80.8h9.2l32 80.8 79.6-34.8 11.2 11.2L920 504l80.8 32v9.2l-80.8 31.6 34.8 79.6-6.4 6.4-79.6-34.8-31.6 80.8h-8.8z m2-246.8c-42.4 0-77.2 34.8-77.2 77.2 0 14 3.6 27.6 10.8 39.2 13.6 23.2 39.2 38 66.4 38 42.4 0 77.2-34.4 77.2-77.2 0-27.6-14.8-53.2-39.2-67.2-11.2-6.4-24.4-10-38-10z" fill="#FFD552" p-id="6362"></path><path d="M836.4 317.6h-11.6v-11.6h11.6v11.6z m0-23.2h-11.6v-11.6h11.6v11.6z m0-23.6h-11.6v-11.6h11.6v11.6z m0-23.2h-11.6V236h11.6v11.6z m0-23.6h-11.6v-11.6h11.6V224z m0-23.2h-11.6v-11.6h11.6v11.6z m0-23.2h-11.6v-11.6h11.6v11.6z m0-23.6h-11.6v-11.6h11.6v11.6z m0-23.2h-11.6v-11.6h11.6v11.6z m0-23.6h-11.6v-11.6h11.6v11.6zM706.8 107.2v-11.6h11.6v11.6h-11.6z m23.2 0v-11.6h11.6v11.6h-11.6z m23.2 0v-11.6h11.6v11.6h-11.6z m23.6 0v-11.6h11.6v11.6h-11.6z m23.2 0v-11.6h11.6v11.6H800zM192.8 889.2v-11.6h11.6v11.6h-11.6z m35.2 0h-11.6v-11.6H228v11.6z m11.6 0v-11.6h11.6v11.6h-11.6z m23.2 0v-11.6h11.6v11.6h-11.6z m35.2 0h-11.6v-11.6h11.6v11.6z m11.6 0v-11.6h11.6v11.6h-11.6z m23.6 0v-11.6h11.6v11.6h-11.6zM659.6 889.2v-11.6h11.6v11.6h-11.6z m23.2 0v-11.6h11.6v11.6h-11.6z m35.2 0h-11.6v-11.6h11.6v11.6z m23.2 0h-11.6v-11.6h11.6v11.6z m11.6 0v-11.6h11.6v11.6h-11.6z m23.6 0v-11.6h11.6v11.6h-11.6z m23.2 0v-11.6h11.6v11.6h-11.6zM836.4 889.2h-11.6v-11.6h11.6v11.6z m0-23.6h-11.6v-11.6h11.6v11.6z m0-23.2h-11.6v-11.6h11.6v11.6z m0-23.6h-11.6v-11.6h11.6v11.6z m0-23.2h-11.6V784h11.6v11.6z m0-23.2h-11.6v-11.6h11.6v11.6zM204.4 863.6h-11.6V852h11.6v11.6z m0-23.6h-11.6v-11.6h11.6v11.6z m0-23.2h-11.6v-11.6h11.6v11.6z m0-23.2h-11.6v-11.6h11.6v11.6zM161.2 222c-52.8 0-96-43.2-96-96s43.2-96 96-96 96 43.2 96 96-43.2 96-96 96z m0-180c-46.4 0-84.4 37.6-84.4 84.4 0 46.4 37.6 84.4 84.4 84.4s84.4-37.6 84.4-84.4c-0.4-46.8-38-84.4-84.4-84.4z" fill="#4A555F" p-id="6363"></path><path d="M161.2 195.2c-2 0-4.4 0-6.4-0.4l1.2-11.6c3.6 0.4 7.2 0.4 10.4 0l1.2 11.6c-2.4 0-4.4 0.4-6.4 0.4z m18.8-2.8l-3.2-11.2c3.2-0.8 6.8-2.4 10-4l5.2 10.4c-4 2-8 3.6-12 4.8z m-38 0c-4-1.2-8-2.8-12-4.8l5.2-10.4c3.2 1.6 6.4 2.8 10 4l-3.2 11.2z m60.4-11.2L195.6 172c2.8-2 5.6-4.4 8-7.2l8.8 8c-3.2 2.8-6.4 5.6-10 8.4z m-83.2-0.4c-3.2-2.4-6.4-5.6-9.2-8.8l8.8-8c2.4 2.8 5.2 5.2 8 7.2l-7.6 9.6z m100.4-18.4l-10-6c2-3.2 3.6-6 4.8-9.6l10.8 4.4c-1.2 3.6-3.2 7.6-5.6 11.2z m-117.2 0c-2.4-3.6-4-7.6-5.6-11.6l10.8-4c1.2 3.2 2.8 6.4 4.8 9.6l-10 6z m126.4-23.6l-11.6-2c0.8-3.6 0.8-6.8 0.8-10.4h11.6c0.4 4 0 8-0.8 12.4z m-135.6-0.4c-0.8-4-1.2-8.4-1.2-12.4h11.6c0 3.6 0.4 7.2 0.8 10.4l-11.2 2zM217.6 116c-0.8-3.6-1.6-6.8-2.8-10l10.8-4c1.6 4 2.8 8 3.6 12.4l-11.6 1.6z m-112.8-0.8l-11.6-2c0.8-4 2-8.4 3.6-12.4l10.8 4.4c-1.2 3.2-2 6.8-2.8 10z m105.2-18.8c-2-3.2-4-6-6.4-8.4l8.8-8c2.8 3.2 5.6 6.4 7.6 10l-10 6.4z m-97.6-0.8l-10-6c2.4-3.6 4.8-7.2 7.6-10l8.8 8c-2.4 2.4-4.4 5.2-6.4 8zM196 80.4c-2.8-2-6-4-8.8-5.6l5.2-10.4c3.6 2 7.6 4 10.8 6.8L196 80.4z m-69.2 0l-7.2-9.2c3.6-2.4 7.2-4.8 10.8-6.8l5.2 10.4c-2.8 1.6-6 3.2-8.8 5.6z m50.4-9.2c-3.2-0.8-6.8-1.6-10.4-2l1.2-11.6c4.4 0.4 8.4 1.2 12.4 2.4l-3.2 11.2z m-31.6-0.4l-3.2-11.2c4-1.2 8.4-2 12.4-2.4l1.2 11.6c-3.6 0.4-6.8 1.2-10.4 2zM155.2 88.4h11.6v73.2h-11.6z" fill="#4A555F" p-id="6364"></path><path d="M124.4 119.2h73.2v11.6H124.4zM498.4 999.6c-68 0-123.6-55.6-123.6-123.6s55.6-123.6 123.6-123.6 123.6 55.6 123.6 123.6-55.2 123.6-123.6 123.6z m0-235.6c-61.6 0-112 50.4-112 112s50.4 112 112 112 112-50.4 112-112-50-112-112-112z" fill="#4A555F" p-id="6365"></path><path d="M498.4 876m-94 0a94 94 0 1 0 188 0 94 94 0 1 0-188 0Z" fill="#FFD552" p-id="6366"></path><path d="M498.8 951.2c-41.6 0-75.6-34-75.6-75.6 0-41.6 34-75.6 75.6-75.6 35.2 0 65.6 24 73.6 58.4l-11.2 2.8c-6.8-29.2-32.4-49.2-62.4-49.2-35.2 0-64 28.8-64 64s28.8 64 64 64c30.4 0 56.8-21.6 62.8-51.2l11.6 2.4c-7.2 34.8-38.4 60-74.4 60z" fill="#4A555F" p-id="6367"></path><path d="M570.4 871.2l-30-15.6 5.2-10.4 18.8 9.6 8.4-20.4 10.8 4.8z" fill="#4A555F" p-id="6368"></path></svg>